<svg id="bg2" xmlns="http://www.w3.org/2000/svg" viewBox="0 0 2736 1824"><defs><style>.cls-1{fill:#fff;}.cls-2{fill:#312783;}.cls-3{fill:#d4a938;}.cls-4{fill:#e20613;}.cls-5{fill:#312782;}</style></defs><rect class="cls-1" width="2736" height="1824"/><rect class="cls-2" width="2736" height="240"/><path class="cls-1" d="M2431.91,44.81A75.19,75.19,0,1,0,2507.1,120a75.27,75.27,0,0,0-75.19-75.19"/><path class="cls-3" d="M2431.91,198.2a78.2,78.2,0,1,1,78.2-78.2,78.28,78.28,0,0,1-78.2,78.2m0-153.39A75.19,75.19,0,1,0,2507.1,120a75.27,75.27,0,0,0-75.19-75.19"/><path class="cls-4" d="M2489.91,78.78v38.9H2503a70.75,70.75,0,0,0-13.11-38.9"/><path class="cls-4" d="M2481.54,117.68V69a71.48,71.48,0,0,0-13.15-10.12v42.53a46.63,46.63,0,0,1,8.84,16.25Z"/><path class="cls-4" d="M2460,54.62a70.47,70.47,0,0,0-13.15-4.19V86.91a46.92,46.92,0,0,1,13.15,6.7Z"/><path class="cls-4" d="M2438.5,85.05V49.15c-2.17-.2-4.36-.3-6.59-.3s-4.4.1-6.55.3V85.2a46.7,46.7,0,0,1,7.14-.54,47.37,47.37,0,0,1,6,.39"/><path class="cls-4" d="M2417,50.42a70.37,70.37,0,0,0-13.14,4.19V94.48A47,47,0,0,1,2417,87.3Z"/><path class="cls-4" d="M2395.47,58.88A71.14,71.14,0,0,0,2382.32,69v48.7h5.46a46.25,46.25,0,0,1,7.69-14.81Z"/><path class="cls-4" d="M2374,78.74a70.85,70.85,0,0,0-13.15,39H2374Z"/><path class="cls-5" d="M2479.3,131.45a46.8,46.8,0,1,1-92.69-9.13H2360.8a71.15,71.15,0,0,0,142.22,0H2478.4a47.27,47.27,0,0,1,.9,9.13"/><path class="cls-3" d="M2432.34,174.21a42.93,42.93,0,1,1,42.93-42.93,43,43,0,0,1-42.93,42.93m0-84.76a41.84,41.84,0,1,0,41.84,41.83,41.89,41.89,0,0,0-41.84-41.83"/><path class="cls-3" d="M2471.88,131.45A39.45,39.45,0,1,1,2432.43,92a39.44,39.44,0,0,1,39.45,39.45"/><path class="cls-5" d="M2462.66,122.42a43.35,43.35,0,0,0-6.73-5.57v-2.73l-3.89,2.75V135h-3.83l1.42,4H2452v20.62l3.89-2.75V139h4.64a6.59,6.59,0,0,0,6.81-6.73c0-3.42-2-7-4.72-9.86m-2.09,12.6h-4.64V122.09a44.36,44.36,0,0,1,4.36,3.67c2.09,2.08,3.58,4.62,3.58,6.9,0,1.42-1.31,2.36-3.3,2.36"/><path class="cls-5" d="M2420.85,117V99.1l-4,2.77v16.41c0,2.75-1.52,4.56-3.89,4.56h-4.72v-9.3H2408L2397.48,123v3.7h6.9v25.4l3.9-2.75V126.72h5.48a2.84,2.84,0,0,1,3.13,2.94V163.8l3.87-2.75V130c0-3.61-1.8-5.31-3.7-5.5,3.89-1.24,3.79-4.93,3.79-7.49m-20.32,5.88,3.85-3.4v3.4Z"/><path class="cls-5" d="M2430.61,110v36.75a1.71,1.71,0,0,1-1.76,1.77c-1,0-1.61-.64-1.61-1.77V121l-3.85,2.75v23.29a2.47,2.47,0,0,1-2.33,1.46h-4.55a2,2,0,0,1-2.09-2.09V130.57l-3.51,2.49v14c0,3,2.46,5,6,5h3.7a5,5,0,0,0,3.71-2,5.39,5.39,0,0,0,4.64,2.09,5.65,5.65,0,0,0,5.5-5.91v-39.1Z"/><path class="cls-5" d="M2434.37,157.07c0,.82.5,1.33,1.47,1.33s3-1.05,5.79-3.05a20.57,20.57,0,0,0,3.68-3.11,3.58,3.58,0,0,0,.68-2.43,8.16,8.16,0,0,0-.85-3L2436.57,124a8.91,8.91,0,0,1-.58-3,7.91,7.91,0,0,1,1.79-4.9,26.31,26.31,0,0,1,6.08-5.6c4.6-3.33,8-4.42,9.37-4.42a2.74,2.74,0,0,1,2.53,2.8v2.6l-3.9,2.67v-3.27c0-.38-.15-.66-.43-.66-.67,0-3.12,1.5-5.75,3.41a17,17,0,0,0-4.36,4.23,5.86,5.86,0,0,0-.78,2.93,11.18,11.18,0,0,0,.95,3.23l7.37,20.3a19.25,19.25,0,0,1,1.61,5.41,6.3,6.3,0,0,1-1.75,4.58,25.71,25.71,0,0,1-4.57,3.94c-2.66,1.89-5.93,3.83-9.05,3.83a4.38,4.38,0,0,1-4.42-4.5c0-2.41,1.71-4.08,3.52-5.33,1.13-.79,4.83-3.4,5-3.57v3.89l-4,3a2,2,0,0,0-.87,1.6"/><polygon class="cls-1" points="2552.19 163.85 2551.66 169.69 2527.2 169.69 2527.2 132.3 2550.83 132.3 2550.83 138.09 2535.41 138.09 2535.41 147.84 2547.93 147.84 2547.93 153.57 2535.41 153.57 2535.41 163.85 2552.19 163.85"/><path class="cls-1" d="M2583,155.58c-2.59,1.53-6.08,2.18-10.4,2.18h-4.9V169.7h-8.21V138.09h-3.6V132.3h15.3c5,0,8.86.41,11.87,2.06,3.31,1.84,5.26,5,5.26,10.4s-1.83,8.81-5.32,10.82m-5.61-16.19c-1.53-1-3.13-1.3-6-1.3h-3.66v14.06h3.79c5.37,0,8.38-1.48,8.38-7.21,0-2.48-.77-4.43-2.48-5.55"/><polygon class="cls-1" points="2618.05 138.09 2602.63 138.09 2602.63 147.84 2615.22 147.84 2615.22 153.57 2602.63 153.57 2602.63 169.69 2594.42 169.69 2594.42 132.3 2618.05 132.3 2618.05 138.09"/><path class="cls-1" d="M2558,108.36a10.8,10.8,0,0,1-5,1.24c-3.54,0-5.61-1.65-7.85-5.73l-5.5-10h-4.25v15.3h-8.21V71.74h8.21V87.22h4.72l8-15.48h8.27L2546.69,90l6.44,11.7c.82,1.47,1.54,2.18,2.95,2.18a4.8,4.8,0,0,0,2.42-.71Z"/><path class="cls-1" d="M2609.65,71.74l-11.23,37.39h-7.5l-5.61-19-5.9,19h-7.33l-11.81-37.39h8.21l7.09,23.39a19.45,19.45,0,0,1,.82,4.31h.06a22.62,22.62,0,0,1,.77-4.19l5-15.59-2.36-7.92h7.74L2594.23,95a19,19,0,0,1,.71,4.43h.12a26.81,26.81,0,0,1,.71-4.48l6.08-23.22Z"/><path class="cls-1" d="M2626.12,109.72a30.88,30.88,0,0,1-11.76-2.36l.36-6.79a25,25,0,0,0,11,3.07c3.78,0,6.62-1.36,6.62-4.37,0-7.5-18.37-3.07-18.37-16.84,0-6.84,5-11.33,14.17-11.33a33.18,33.18,0,0,1,9.51,1.59L2637.4,79a25.24,25.24,0,0,0-8.69-1.83c-4.43,0-6.79,1.65-6.79,4.31,0,7.21,18.43,3,18.43,16.84,0,8-6.26,11.45-14.23,11.45"/><path class="cls-1" d="M2671.11,95c-2.6,1.54-6.08,2.19-10.39,2.19h-4.9v11.93h-8.21V77.53H2644V71.74h15.3c5,0,8.86.42,11.87,2.07,3.31,1.83,5.26,5,5.26,10.4s-1.83,8.8-5.32,10.8m-5.61-16.18c-1.53-1-3.12-1.3-6-1.3h-3.66V91.59h3.78c5.37,0,8.38-1.48,8.38-7.21,0-2.47-.77-4.42-2.48-5.55"/><rect class="cls-1" x="2527.2" y="119.56" width="148.37" height="2.52"/></svg>