<svg id="Layer_1" data-name="Layer 1" xmlns="http://www.w3.org/2000/svg" xmlns:xlink="http://www.w3.org/1999/xlink" viewBox="0 0 77 77"><defs><style>.cls-1{fill:none;stroke:#939598;stroke-miterlimit:10;stroke-width:7px;}.cls-2{fill:#e20613;}.cls-3{fill:url(#radial-gradient);}</style><radialGradient id="radial-gradient" cx="400.07" cy="400.37" r="20.23" gradientUnits="userSpaceOnUse"><stop offset="0" stop-color="#fff"/><stop offset="1" stop-color="#f1f2f2"/></radialGradient></defs><circle class="cls-1" cx="38.5" cy="38.5" r="35"/><circle class="cls-2" cx="400.07" cy="400.37" r="35" transform="translate(-512.4 168.33) rotate(-58.28)"/><path class="cls-3" d="M407.33,400.37,417.68,388a5.56,5.56,0,0,0-.69-7.83h0a5.55,5.55,0,0,0-7.83.69l-9.09,10.83L391,380.89a5.55,5.55,0,0,0-7.83-.69h0a5.56,5.56,0,0,0-.69,7.83l10.35,12.34-10.35,12.34a5.56,5.56,0,0,0,.69,7.83h0a5.56,5.56,0,0,0,7.83-.69L400.07,409l9.09,10.83a5.56,5.56,0,0,0,7.83.69h0a5.56,5.56,0,0,0,.69-7.83Z" transform="translate(-361.57 -361.87)"/></svg>