<svg id="Layer_1" data-name="Layer 1" xmlns="http://www.w3.org/2000/svg" viewBox="0 0 94.27 83.64"><defs><style>.cls-1{fill:#312783;}</style></defs><path class="cls-1" d="M71.13,91.82a26,26,0,1,1,.1,0Zm.21-47.38A21.47,21.47,0,0,0,56,81a21.17,21.17,0,0,0,15.08,6.32,21.46,21.46,0,0,0,.37-42.92Z" transform="translate(-2.86 -8.18)"/><path class="cls-1" d="M78.23,75.22a2.11,2.11,0,0,1-1.51-.66l-6.51-6.5-.55-.56A2.22,2.22,0,0,1,69,65.85V51.75a2.22,2.22,0,1,1,4.44,0c0,1.48,0,3,0,4.44v3.48c0,1.58,0,3.16,0,4.73a1.23,1.23,0,0,0,.39,1c1.94,1.92,4,4,6,6a2.3,2.3,0,0,1,.61,2.24,2.24,2.24,0,0,1-1.66,1.54A2.59,2.59,0,0,1,78.23,75.22Z" transform="translate(-2.86 -8.18)"/><path class="cls-1" d="M22.3,66.63c-1,0-2,0-3,0a2.28,2.28,0,0,1-1.63-.74A2.49,2.49,0,0,1,17,64.13a2.43,2.43,0,0,1,2.44-2.36h5.65a2.41,2.41,0,0,1,.13,4.82C24.29,66.62,23.3,66.63,22.3,66.63Z" transform="translate(-2.86 -8.18)"/><path class="cls-1" d="M22.34,49.72l-2.95,0a2.42,2.42,0,0,1,.08-4.83h5.64a2.42,2.42,0,0,1,.06,4.83Z" transform="translate(-2.86 -8.18)"/><path class="cls-1" d="M39.13,49.71H36.35a2.42,2.42,0,1,1,0-4.83H42a2.42,2.42,0,1,1,0,4.83H39.13Z" transform="translate(-2.86 -8.18)"/><path class="cls-1" d="M39.13,66.61H36.36a2.45,2.45,0,0,1-2.43-2.44,2.42,2.42,0,0,1,2.44-2.4h5a.48.48,0,0,1,.35.16.51.51,0,0,1,.12.38,29.85,29.85,0,0,0-.23,3.59v.23a.48.48,0,0,1-.14.34.49.49,0,0,1-.34.15h-2Z" transform="translate(-2.86 -8.18)"/><path class="cls-1" d="M39.15,80.71a.48.48,0,1,1,0-.95H44.8a.48.48,0,1,1,0,1Z" transform="translate(-2.86 -8.18)"/><path class="cls-1" d="M33.49,80.72a.48.48,0,0,1,0-1h5.65a.48.48,0,1,1,0,.95Z" transform="translate(-2.86 -8.18)"/><path class="cls-1" d="M16.16,80.75A13.86,13.86,0,0,1,3,69.39a12.91,12.91,0,0,1-.12-1.79c0-3.95,0-7.89,0-11.84,0-6.43,0-13,0-19.59,0,0,0-.05,0-.08v-9.2a.49.49,0,0,1,.05-.2,2.07,2.07,0,0,0,.08-1s0-.14,0-.17a12.75,12.75,0,0,1,.47-2.43,15.5,15.5,0,0,1,1.71-3.46,15.26,15.26,0,0,1,4.44-4.1l.69-.39A16.39,16.39,0,0,1,13.5,14l.83-.17c.33-.06.67-.11,1-.15.65-.06,1.36-.1,2.17-.1h.83a1.86,1.86,0,0,0,.56-.08.86.86,0,0,0,.45-.22c.26-.27.27-.59.27-1.28V11c0-1.7.53-2.4,2.06-2.79h1.07A2.48,2.48,0,0,1,24.83,11c0,.2,0,.4,0,.6s0,.46,0,.69c0,1,.34,1.15.75,1.24a1.28,1.28,0,0,0,.35.06H52.35a1.32,1.32,0,0,0,.32,0c.44-.1.76-.24.78-1.25V11a2.49,2.49,0,0,1,2.06-2.76h1.08c1.53.39,2,1.09,2.06,2.79v1c0,.7,0,1,.27,1.28a.8.8,0,0,0,.41.21,1.63,1.63,0,0,0,.55.09h.88c.81,0,1.52,0,2.17.1.35,0,.69.09,1,.15l.83.17A16.68,16.68,0,0,1,68,15.17l.7.4a15.17,15.17,0,0,1,4.43,4.08,15.94,15.94,0,0,1,1.71,3.46,12.5,12.5,0,0,1,.48,2.45s0,.14,0,.17a1.9,1.9,0,0,0,.06.88l0,.14c0,3.16,0,6.25,0,9.34a.48.48,0,0,1-.16.36.55.55,0,0,1-.32.12h-.06a31.3,31.3,0,0,0-3.67-.23H70.9a.48.48,0,0,1-.43-.27.91.91,0,0,0-.16-.24,1.3,1.3,0,0,0-1-.29H28.19L9,35.54a1.2,1.2,0,0,0-.9.28,1.22,1.22,0,0,0-.27.91q0,11.07,0,22.13v7.89a8.9,8.9,0,0,0,8.9,9l22.45,0H43a.48.48,0,0,1,.45.31A28.82,28.82,0,0,0,45.22,80a.46.46,0,0,1,0,.47.47.47,0,0,1-.41.24H33.49c-5.76,0-11.52,0-17.28,0Zm-7.35-50,.13.49v-.48l19.45,0H49.9l19.45,0h.13l.14.48v-.48a.83.83,0,0,0,1-1c0-.48,0-1,0-1.43v-.78a8.9,8.9,0,0,0-5.9-8.36,8,8,0,0,0-2.09-.45l-.72-.06-.79,0H59.41s0,0,0,0l-.13,0-.2,0a.86.86,0,0,0-.45.2,1.1,1.1,0,0,0-.24.78c0,1.46,0,2.95,0,4.4v.53a2.37,2.37,0,0,1-2.35,2.5,2.41,2.41,0,0,1-2.4-2.68v-.91c0-1.27,0-2.54,0-3.81a1.08,1.08,0,0,0-.25-.8,1.06,1.06,0,0,0-.78-.25h-27a.89.89,0,0,0-1,1.05c0,1.31,0,2.62,0,3.93v.79a2.42,2.42,0,0,1-2.38,2.68,2.37,2.37,0,0,1-2.37-2.5v-.53c0-1.45,0-2.94,0-4.4a1,1,0,0,0-.23-.78.82.82,0,0,0-.43-.19L19,18.65H17.2l-.79,0c-.23,0-.47,0-.7.06a7.94,7.94,0,0,0-2.1.45,8.88,8.88,0,0,0-5.9,8.36v.63l-.48.12h.48c0,.49,0,1,0,1.46a1,1,0,0,0,.21.73,1,1,0,0,0,.74.24h.16Z" transform="translate(-2.86 -8.18)"/></svg>