<svg id="Layer_1" data-name="Layer 1" xmlns="http://www.w3.org/2000/svg" viewBox="0 0 118.41 126.26"><defs><style>.cls-1{fill:#fff;}</style></defs><path class="cls-1" d="M-75.41,91.42a26.34,26.34,0,0,1-26.27-26.15,25.9,25.9,0,0,1,7.59-18.52,26,26,0,0,1,18.5-7.7,26.42,26.42,0,0,1,18.75,7.6,25.9,25.9,0,0,1,7.68,18.53A26.28,26.28,0,0,1-75.37,91.42Zm.13-49.13A22.76,22.76,0,0,0-98.35,65.11a22.92,22.92,0,0,0,22.68,23h.18a23.07,23.07,0,0,0,23-22.74A22.66,22.66,0,0,0-59,49.17a22.56,22.56,0,0,0-16-6.88Z" transform="translate(134.03 0.16)"/><path class="cls-1" d="M-74.83,126.1A59.27,59.27,0,0,1-134,66.9a59.15,59.15,0,0,1,7.94-29.61l1.17-2,24.54,14.17-1.17,2a30.81,30.81,0,0,0-4.14,15.43A30.9,30.9,0,0,0-74.83,97.76,31,31,0,0,0-48.1,82.32,30.8,30.8,0,0,0-44,66.9,30.91,30.91,0,0,0-74.83,36h-2.34V7.69h2.34A59.28,59.28,0,0,1-15.62,66.9a59.25,59.25,0,0,1-7.94,29.6A59.42,59.42,0,0,1-74.83,126.1Zm-48.33-84.41a54.53,54.53,0,0,0-6.18,25.21,54.57,54.57,0,0,0,54.51,54.51A54.71,54.71,0,0,0-27.62,94.15,54.49,54.49,0,0,0-20.31,66.9,54.58,54.58,0,0,0-72.48,12.43v19A35.6,35.6,0,0,1-39.28,66.9,35.52,35.52,0,0,1-44,84.67a35.68,35.68,0,0,1-30.79,17.78A35.59,35.59,0,0,1-110.38,66.9a35.56,35.56,0,0,1,3.66-15.71Z" transform="translate(134.03 0.16)"/><path class="cls-1" d="M-102.72,53.5l-24.55-14.17,1.18-2A59.41,59.41,0,0,1-74.83,7.69h2.35V36h-2.35a31,31,0,0,0-26.72,15.44Zm-18.1-15.86,16.45,9.49a35.74,35.74,0,0,1,27.2-15.71v-19A54.76,54.76,0,0,0-120.82,37.64Z" transform="translate(134.03 0.16)"/><path class="cls-1" d="M-131.4,35.93l-2.31-1.28A67.24,67.24,0,0,1-74.83-.16V2.47A64.59,64.59,0,0,0-131.4,35.93Z" transform="translate(134.03 0.16)"/><path class="cls-1" d="M-80.83,66.19A4.7,4.7,0,0,1-83.29,68a6.44,6.44,0,0,0,1,2.24,2,2,0,0,0,1.68.79A2.28,2.28,0,0,0-79,70.32l1.24,2.43a7.9,7.9,0,0,1-1.65,1,4.69,4.69,0,0,1-1.88.33,4.13,4.13,0,0,1-2-.47,4.66,4.66,0,0,1-1.43-1.12A6.71,6.71,0,0,1-85.65,71a9.63,9.63,0,0,1-.55-1.53,9,9,0,0,1-.24-1.26h-2.11v5.65H-92V58H-85a4.75,4.75,0,0,1,3.71,1.51,5.4,5.4,0,0,1,1.34,3.71A5.06,5.06,0,0,1-80.83,66.19Zm-4.61-.79A1.83,1.83,0,0,0-84,64.79a2.38,2.38,0,0,0,.53-1.61A2.42,2.42,0,0,0-84,61.55a1.83,1.83,0,0,0-1.46-.61h-3.11V65.4Z" transform="translate(134.03 0.16)"/><path class="cls-1" d="M-68.2,73.68l-4-9.48L-73,73.86h-3.51L-75,58h3.53l4.44,10.68L-62.62,58h3.53l1.47,15.87h-3.51L-62,64.2l-4,9.48Z" transform="translate(134.03 0.16)"/></svg>