<svg id="Layer_1" data-name="Layer 1" xmlns="http://www.w3.org/2000/svg" viewBox="0 0 129.19 99.95"><defs><style>.cls-1{fill:#231f20;}</style></defs><path class="cls-1" d="M-115.36,112.94a9.21,9.21,0,0,1-5.46-2,2.38,2.38,0,0,0-.43-.24l-1.8-1.95c-1.66-2.84-1.76-6.13-1.71-9.52.06-4.38.07-8.83.07-13.14,0-3.37,0-6.75,0-10.13a3.11,3.11,0,0,0-.69-2.25,2.5,2.5,0,0,0-1.91-.75h-.25L-129,73a9.55,9.55,0,0,1-6-1.62,9.73,9.73,0,0,1-4.33-8.06c-.12-6.24-.11-11.77,0-16.92a9.61,9.61,0,0,1,9.53-9.71h4q6.89,0,13.76,0l8.8,0h.19A74.34,74.34,0,0,0-64.09,25.91c.87-.52,1.72-1.08,2.53-1.62s1.48-1,2.23-1.43a3.57,3.57,0,0,0,1.53-2.3l.06-.22c1.18-3.87,3.43-6.18,6.9-7a10,10,0,0,1,2.38-.3,8.79,8.79,0,0,1,6.76,3.39,10.16,10.16,0,0,1,2.42,6.88l0,13.78c0,16.35-.07,33.25-.16,49.88,0,4.38-1.9,7.5-5.6,9.28a9.05,9.05,0,0,1-3.94,1h0a9.21,9.21,0,0,1-6.14-2.66,9.35,9.35,0,0,1-2.74-4.75,4.37,4.37,0,0,0-1.76-2.65A76.94,76.94,0,0,0-88,74.62a4,4,0,0,0-.89-.11,2.08,2.08,0,0,0-1.62.71,3.06,3.06,0,0,0-.61,2.26c.21,4-1,7-3.58,9.32A9.34,9.34,0,0,1-101.08,89h-.09a6.41,6.41,0,0,1-.73-.07,8.22,8.22,0,0,0-1.16-.1,2.74,2.74,0,0,0-2.29,1,4.7,4.7,0,0,0-.58,3.4,8.3,8.3,0,0,1,.06.84l0,8.11c0,4.35-1.69,7.52-5,9.43A9,9,0,0,1-115.36,112.94ZM-118.95,73a1.59,1.59,0,0,0-1.16.51,1.87,1.87,0,0,0-.48,1.26l0,6.92q0,10.49,0,20.9a5.65,5.65,0,0,0,2.52,5,5.21,5.21,0,0,0,2.86.89c2.92,0,5.23-2.58,5.27-5.87,0-4,0-8.08,0-12.11v-5q0-4.84,0-9.69v-.11a2.61,2.61,0,0,0-.55-1.92,2.17,2.17,0,0,0-1.68-.71h-6.8Zm70.18-55.6a5.1,5.1,0,0,0-4.07,2.18A6.64,6.64,0,0,0-54,23.85q0,24.27-.12,48.55l0,14.1a6.9,6.9,0,0,0,0,1.08,5.51,5.51,0,0,0,3.51,4.77,5.35,5.35,0,0,0,1.94.38,4.46,4.46,0,0,0,3.12-1.23,6.9,6.9,0,0,0,2.07-5.28q0-23,.11-46.08l0-16.44a9.35,9.35,0,0,0,0-1.16,5.53,5.53,0,0,0-3.94-4.92A5.54,5.54,0,0,0-48.77,17.42Zm-54.76,55.64a2.19,2.19,0,0,0-1.68.68,2.65,2.65,0,0,0-.64,1.88c0,1.72,0,3.43,0,5.16l0,2a1.79,1.79,0,0,0,.47,1.26,1.61,1.61,0,0,0,1.16.54h1.22l1.51,0c.38,0,.75,0,1.12,0a5.56,5.56,0,0,0,5.25-5.68c0-.46,0-.91,0-1.37s0-1,0-1.49a2.68,2.68,0,0,0-.57-2,2.28,2.28,0,0,0-1.77-.78c-1.82,0-3.73-.11-5.84-.21ZM-60.3,28.88a2.26,2.26,0,0,0-.79.29,78.29,78.29,0,0,1-35,11.7,2.43,2.43,0,0,0-2.31,2.71c0,8.81,0,16-.07,22.57A2.55,2.55,0,0,0-96,69a71.07,71.07,0,0,1,11.29,1.88A80,80,0,0,1-61,81a1.54,1.54,0,0,0,.83.24,1.58,1.58,0,0,0,.81-.23,1.82,1.82,0,0,0,.83-1.54l.14-48.86A1.85,1.85,0,0,0-59,29.23a1.57,1.57,0,0,0-1-.38A1.24,1.24,0,0,0-60.3,28.88Zm-69.46,12.23a5.5,5.5,0,0,0-5.5,5.79c0,3.82,0,7.65,0,11.47v4.34a6,6,0,0,0,1.65,4.22,5,5,0,0,0,3.84,1.64h3.34q10.74,0,21.49.09h0a2.38,2.38,0,0,0,1.83-.71,2.8,2.8,0,0,0,.65-2c0-7.27,0-14.68.06-22a2.9,2.9,0,0,0-.65-2,2.38,2.38,0,0,0-1.83-.71h-2l-12.32,0-10.51,0Z" transform="translate(139.42 -13)"/><path class="cls-1" d="M-15.18,57.74c-2.48,0-5,0-7.44,0a2.07,2.07,0,0,1-2.14-2.19,2.07,2.07,0,0,1,2.14-2.2H-19q3.31,0,6.65,0a1.87,1.87,0,0,1,1.93,1.38,2.06,2.06,0,0,1-.26,2.15,2.17,2.17,0,0,1-1.77.87Z" transform="translate(139.42 -13)"/><path class="cls-1" d="M-22.78,80.25a2.08,2.08,0,0,1-1.5-.69c-.58-.59-1.14-1.21-1.7-1.83l-.78-.85-.83-.89c-.61-.66-1.23-1.32-1.82-2a2.39,2.39,0,0,1,0-3.15,1.87,1.87,0,0,1,1.4-.63,2.1,2.1,0,0,1,1.55.72c1.81,1.92,3.48,3.73,5.09,5.52a2.3,2.3,0,0,1,.08,3.11,2,2,0,0,1-1.46.69Z" transform="translate(139.42 -13)"/><path class="cls-1" d="M-27.95,40.78a1.9,1.9,0,0,1-1.36-.59,2.32,2.32,0,0,1-.64-1.55,2.31,2.31,0,0,1,.54-1.55c1.59-1.82,3.33-3.69,5.33-5.73a2,2,0,0,1,1.41-.6,2,2,0,0,1,1.47.67,2.33,2.33,0,0,1-.09,3.13c-.59.65-1.19,1.29-1.8,1.93l-.79.85-.83.9c-.58.63-1.16,1.26-1.76,1.87a2.07,2.07,0,0,1-1.48.67Z" transform="translate(139.42 -13)"/></svg>