<svg id="Layer_1" data-name="Layer 1" xmlns="http://www.w3.org/2000/svg" viewBox="0 0 98.77 109.28"><defs><style>.cls-1,.cls-2{fill:#fff;}.cls-1{fill-rule:evenodd;}</style></defs><path class="cls-1" d="M-78.94,115.36a2.49,2.49,0,0,1-.7-.11,2,2,0,0,1-1.22-2.53,17.59,17.59,0,0,1,4.1-7.69,8.56,8.56,0,0,1,6-2.63,9.21,9.21,0,0,1,5.26,1.82,29.33,29.33,0,0,1,6.42,5.9,2,2,0,0,1-.26,2.82,2,2,0,0,1-1.26.46,2,2,0,0,1-1.54-.72,29.64,29.64,0,0,0-5.39-5c-.36-.25-.75-.46-1.09-.66l-.08,0a4.06,4.06,0,0,0-2-.57,4.38,4.38,0,0,0-2.73,1.06,11.42,11.42,0,0,0-3.13,5.11c-.09.25-.18.51-.26.78s-.12.41-.18.58A2,2,0,0,1-78.94,115.36Zm-12.32-3.59a2,2,0,0,1-1.22-.43,1.83,1.83,0,0,1-.67-2.17A4.18,4.18,0,0,1-92,107.8a25.09,25.09,0,0,0,5.64-5.92c2.4-3.75,2.93-7.41,1.6-11.18-.14-.39-.31-.75-.47-1.09l-.09-.18a2,2,0,0,1,.81-2.71,2.05,2.05,0,0,1,1-.25,1.94,1.94,0,0,1,1.71,1,14.23,14.23,0,0,1,1.77,7A17.18,17.18,0,0,1-82.89,104a27.79,27.79,0,0,1-7.18,7.39A2,2,0,0,1-91.26,111.77ZM-49,110.51a2.27,2.27,0,0,1-1.33-.45A171.12,171.12,0,0,1-75.74,87.79a55.91,55.91,0,0,1-9.43-13.21,17.78,17.78,0,0,1-2.2-9.07c.47-5.86,2.9-9.91,7.42-12.39a12.75,12.75,0,0,1,6.32-1.28c4.4.2,8.29,2.75,11,7.17.66,1.11,1.24,2.32,1.8,3.49l.85,1.77a43.93,43.93,0,0,0,13,15.38c2.8,2.11,5.65,4.18,8.41,6.19l.42.3,3.63,2.65a2.36,2.36,0,0,1,1.05,1.83,1.87,1.87,0,0,1-.8,1.53,2.09,2.09,0,0,1-1.26.43,1.59,1.59,0,0,1-.94-.29c-1-.74-2.07-1.47-3.12-2.21l-.26-.18A127.58,127.58,0,0,1-54.26,78.74a50.56,50.56,0,0,1-11-16,13.28,13.28,0,0,0-2.68-4,9.55,9.55,0,0,0-6.58-2.84c-3.52,0-6.41,2.13-7.93,5.85-1.35,3.3-1.15,6.64.62,10.51a45.18,45.18,0,0,0,7,10.49,135.28,135.28,0,0,0,18.41,17.57c2,1.65,4.14,3.26,6.18,4.81l.23.17,2,1.55a2,2,0,0,1,.55,2.94A2,2,0,0,1-49,110.51Zm-55.46-5.74a2,2,0,0,1-1.86-1.32,2,2,0,0,1,1.08-2.52l1-.4.09,0c.61-.24,1.31-.51,2-.83,3-1.52,5.14-4.09,6.58-8.07a25.36,25.36,0,0,0,.9-14c-.61-3-1.3-6.61-1.79-10.16-.8-5.74-.14-10.22,2.07-14.11A22.42,22.42,0,0,1-78.22,41.67a23.64,23.64,0,0,1,4-.37c5.94,0,11.43,2.49,16.32,7.39a29.63,29.63,0,0,1,6.36,9.38,30.17,30.17,0,0,0,7.69,10.4,66.28,66.28,0,0,0,9.18,7,2,2,0,0,1,1,2.12,2,2,0,0,1-1.93,1.65,2.18,2.18,0,0,1-1.13-.34c-1.73-1.09-3.43-2.27-5.05-3.5a50,50,0,0,1-10-9.67,34,34,0,0,1-3.36-5.93l-.25-.52a27.24,27.24,0,0,0-7.88-10,18.43,18.43,0,0,0-11.33-4,18.53,18.53,0,0,0-12.56,5,16.28,16.28,0,0,0-5.46,9.81c-.1.75-.16,1.5-.21,2.22,0,.37,0,.68-.08,1v.1a51.76,51.76,0,0,0,1,7.76l.2,1.12.21,1.22c.48,2.73,1,5.54,1.26,8.31a25.38,25.38,0,0,1-2,12.06A17.49,17.49,0,0,1-98,101.78a19.71,19.71,0,0,1-5.92,2.91A2,2,0,0,1-104.48,104.77Zm63.77-1.34a2,2,0,0,1-1.2-.44l-2.27-1.7-.28-.22c-2.19-1.63-4.45-3.31-6.6-5A113.43,113.43,0,0,1-67.5,80a58.93,58.93,0,0,1-8.4-12.62,5.51,5.51,0,0,1-.58-1.88A1.63,1.63,0,0,1-76,64.26a2.44,2.44,0,0,1,1.81-.69,1.67,1.67,0,0,1,1.48,1.06c2.88,6.48,7.21,11.7,11.06,16A132.62,132.62,0,0,0-40.07,99.36c1.06.75,1.43,1.3,1.4,2.1a1.88,1.88,0,0,1-1.13,1.75A2.13,2.13,0,0,1-40.71,103.43ZM-110.19,97a2,2,0,0,1-1.36-.53,2,2,0,0,1-.33-2.58,3.57,3.57,0,0,1,.45-.51,32.36,32.36,0,0,0,4.85-5.7,13.15,13.15,0,0,0,2-9.19c-.21-1.52-.44-3-.66-4.57l0-.1c-.39-2.63-.79-5.35-1.14-8a30.21,30.21,0,0,1-.11-9.91,28.17,28.17,0,0,1,4.34-10A31.65,31.65,0,0,1-83.35,32.22a35.4,35.4,0,0,1,8.69-1.09c10.09,0,18.2,3.89,24.8,11.81a75.54,75.54,0,0,1,6,8.74l0,.09a27.37,27.37,0,0,0,9.2,9.32,2,2,0,0,1,.72,2.71,2,2,0,0,1-1.73,1,2,2,0,0,1-1-.25,26.57,26.57,0,0,1-6.22-4.95,45.23,45.23,0,0,1-6-8.33A38.88,38.88,0,0,0-57.44,41a26.17,26.17,0,0,0-17-5.89c-.54,0-1.1,0-1.66,0a27.84,27.84,0,0,0-11.69,2.92A28.46,28.46,0,0,0-102.5,56.2a16.69,16.69,0,0,0-.19,6.76c.33,2.55.7,5.13,1.07,7.62.26,1.8.51,3.54.75,5.29.42,3.07.73,6.07-.12,9a22,22,0,0,1-5,8.59,40.68,40.68,0,0,1-3,3A1.79,1.79,0,0,1-110.19,97Zm-2-11.46a2.13,2.13,0,0,1-2-1.76c-.08-.37-.16-.75-.23-1.12l-.12-.57a76,76,0,0,1-1.61-15,45,45,0,0,1,2.16-14.42,14.64,14.64,0,0,1,.78-1.92,2,2,0,0,1,1.77-1.09,2.15,2.15,0,0,1,.86.19,2,2,0,0,1,1,2.58A34.44,34.44,0,0,0-112,64.28a68.46,68.46,0,0,0,1.78,18.6,2.24,2.24,0,0,1-.24,1.71,2.06,2.06,0,0,1-1.34.87A2.58,2.58,0,0,1-112.18,85.5Zm75.34-36.3a2,2,0,0,1-1.74-1,83.23,83.23,0,0,0-6.7-9.47c-5-6.21-10.63-10.16-17.24-12.08a44.37,44.37,0,0,0-12.33-1.84A38.48,38.48,0,0,0-97.06,32a47.93,47.93,0,0,0-11.47,11.17,2.09,2.09,0,0,1-1.68.91,1.94,1.94,0,0,1-1.12-.36,2,2,0,0,1-.86-1.28,2,2,0,0,1,.37-1.55,48.19,48.19,0,0,1,8.67-9.29,45.09,45.09,0,0,1,18.63-9.64,40.64,40.64,0,0,1,9.58-1.09c1.09,0,2.22,0,3.35.11A42.1,42.1,0,0,1-56.85,24.5,39.66,39.66,0,0,1-42.2,36.15a81.13,81.13,0,0,1,6.84,9.62,6.52,6.52,0,0,1,.49,1.13l.15.39-.05.18a2.3,2.3,0,0,1-1.53,1.66A2,2,0,0,1-36.84,49.2Zm-3.87-20a1.86,1.86,0,0,1-1.44-.67c-5.92-7-13.69-11.25-23.75-13.06A46,46,0,0,0-74,14.73a57.15,57.15,0,0,0-7.14.47,46.44,46.44,0,0,0-21.27,8.3c-.89.64-1.75,1.3-2.58,1.95a2.36,2.36,0,0,1-1.46.55,2,2,0,0,1-1.56-.8,2,2,0,0,1,.49-2.87A50.54,50.54,0,0,1-83,11.42c2-.3,4-.46,6-.62l2.7-.22h.07A50.27,50.27,0,0,1-50.9,16.36a38.43,38.43,0,0,1,11.57,9.25A2.07,2.07,0,0,1-39,28.19a2.08,2.08,0,0,1-1.75,1Z" transform="translate(124.21 -8.33)"/><path class="cls-1" d="M-110.19,97a2,2,0,0,1-1.36-.53,2,2,0,0,1-.33-2.58,3.57,3.57,0,0,1,.45-.51,32.36,32.36,0,0,0,4.85-5.7,13.15,13.15,0,0,0,2-9.19c-.21-1.52-.44-3-.66-4.57l0-.1c-.39-2.66-.79-5.37-1.14-8a30.21,30.21,0,0,1-.11-9.91,28.17,28.17,0,0,1,4.34-10A31.65,31.65,0,0,1-83.35,32.22a35.4,35.4,0,0,1,8.69-1.09c10.09,0,18.2,3.89,24.8,11.81a75.54,75.54,0,0,1,6,8.74l0,.09a27.37,27.37,0,0,0,9.2,9.32,2,2,0,0,1,.72,2.71,2,2,0,0,1-1.73,1,2,2,0,0,1-1-.25,26.57,26.57,0,0,1-6.22-4.95,44.89,44.89,0,0,1-6-8.33A38.88,38.88,0,0,0-57.44,41a26.17,26.17,0,0,0-17-5.89c-.54,0-1.1,0-1.66,0a27.84,27.84,0,0,0-11.69,2.92A28.46,28.46,0,0,0-102.5,56.2a16.69,16.69,0,0,0-.19,6.76c.33,2.55.7,5.12,1.06,7.61.27,1.79.52,3.55.76,5.3.42,3.07.73,6.07-.12,9a22,22,0,0,1-5,8.59,40.68,40.68,0,0,1-3,3A1.79,1.79,0,0,1-110.19,97Z" transform="translate(124.21 -8.33)"/><path class="cls-1" d="M-49,110.51a2.27,2.27,0,0,1-1.33-.45A171.12,171.12,0,0,1-75.74,87.79a55.91,55.91,0,0,1-9.43-13.21,17.78,17.78,0,0,1-2.2-9.07c.47-5.86,2.9-9.91,7.42-12.39a12.75,12.75,0,0,1,6.32-1.28c4.4.2,8.29,2.75,11,7.17.67,1.11,1.24,2.32,1.8,3.49.28.6.56,1.18.85,1.77a43.93,43.93,0,0,0,13,15.38c2.79,2.11,5.66,4.19,8.43,6.2l.32.24c1.24.9,2.48,1.79,3.71,2.7a2.36,2.36,0,0,1,1.05,1.83,1.87,1.87,0,0,1-.8,1.53,2.09,2.09,0,0,1-1.26.43,1.59,1.59,0,0,1-.94-.29L-39.76,90l-.17-.12A127.84,127.84,0,0,1-54.26,78.74a50.56,50.56,0,0,1-11-16,13.28,13.28,0,0,0-2.68-4,9.55,9.55,0,0,0-6.58-2.84c-3.52,0-6.41,2.13-7.93,5.85-1.35,3.3-1.15,6.64.62,10.51a45.18,45.18,0,0,0,7,10.49,135.28,135.28,0,0,0,18.41,17.57c2,1.66,4.16,3.27,6.21,4.83l.21.16,2,1.54a2,2,0,0,1,.55,2.94A2,2,0,0,1-49,110.51Z" transform="translate(124.21 -8.33)"/><path class="cls-1" d="M-104.48,104.77a2,2,0,0,1-1.86-1.32,2,2,0,0,1,1.08-2.52c.34-.15.69-.28,1-.42.69-.27,1.36-.53,2-.85,3-1.52,5.14-4.09,6.58-8.07a25.36,25.36,0,0,0,.9-14c-.61-3-1.3-6.6-1.79-10.16-.8-5.74-.14-10.22,2.07-14.11A22.42,22.42,0,0,1-78.22,41.67a23.64,23.64,0,0,1,4-.37c5.94,0,11.43,2.49,16.32,7.39a29.63,29.63,0,0,1,6.36,9.38,30.26,30.26,0,0,0,7.69,10.4,66.28,66.28,0,0,0,9.18,7,2,2,0,0,1,1,2.12,2,2,0,0,1-1.93,1.65,2.18,2.18,0,0,1-1.13-.34c-1.73-1.09-3.43-2.27-5.05-3.5a50.26,50.26,0,0,1-10-9.67,34,34,0,0,1-3.36-5.93l-.25-.52a27.24,27.24,0,0,0-7.88-10,18.43,18.43,0,0,0-11.33-4,18.53,18.53,0,0,0-12.56,5,16.28,16.28,0,0,0-5.46,9.81c-.1.75-.16,1.5-.21,2.22,0,.34,0,.66-.08,1v.1a51.89,51.89,0,0,0,1,7.77l.41,2.33c.48,2.73,1,5.55,1.26,8.31a25.38,25.38,0,0,1-2,12.06A17.49,17.49,0,0,1-98,101.78a19.71,19.71,0,0,1-5.92,2.91A2,2,0,0,1-104.48,104.77Z" transform="translate(124.21 -8.33)"/><path class="cls-1" d="M-36.84,49.2a2,2,0,0,1-1.74-1,83.23,83.23,0,0,0-6.7-9.47c-5-6.21-10.63-10.16-17.24-12.08a44.37,44.37,0,0,0-12.33-1.84A38.48,38.48,0,0,0-97.06,32a47.93,47.93,0,0,0-11.47,11.17,2.09,2.09,0,0,1-1.68.91,1.94,1.94,0,0,1-1.12-.36,2,2,0,0,1-.86-1.28,2,2,0,0,1,.37-1.55,48.19,48.19,0,0,1,8.67-9.29,45.09,45.09,0,0,1,18.63-9.64,40.64,40.64,0,0,1,9.58-1.09c1.09,0,2.22,0,3.35.11a42.31,42.31,0,0,1,14.74,3.53A39.79,39.79,0,0,1-42.2,36.15a81.13,81.13,0,0,1,6.84,9.62,6.52,6.52,0,0,1,.49,1.13l.15.39-.05.18a2.28,2.28,0,0,1-1.53,1.66A2,2,0,0,1-36.84,49.2Z" transform="translate(124.21 -8.33)"/><path class="cls-1" d="M-40.71,29.17a1.86,1.86,0,0,1-1.44-.67c-5.92-7-13.69-11.25-23.75-13.06A46,46,0,0,0-74,14.73a57.15,57.15,0,0,0-7.14.47,46.44,46.44,0,0,0-21.27,8.3c-.89.64-1.79,1.34-2.58,1.95a2.36,2.36,0,0,1-1.46.55,2,2,0,0,1-1.56-.8,2,2,0,0,1,.49-2.87A50.54,50.54,0,0,1-83,11.42c2-.3,4-.46,6-.62l2.7-.22h.07A50.27,50.27,0,0,1-50.9,16.36a38.43,38.43,0,0,1,11.57,9.25A2.07,2.07,0,0,1-39,28.19a2.08,2.08,0,0,1-1.75,1Z" transform="translate(124.21 -8.33)"/><path class="cls-1" d="M-40.71,103.43a2,2,0,0,1-1.2-.44l-2.51-1.88c-2.23-1.66-4.48-3.34-6.64-5.09A113.43,113.43,0,0,1-67.5,80a59.18,59.18,0,0,1-8.4-12.62,5.51,5.51,0,0,1-.58-1.88A1.63,1.63,0,0,1-76,64.26a2.44,2.44,0,0,1,1.81-.69,1.67,1.67,0,0,1,1.48,1.06c2.88,6.48,7.21,11.7,11.06,16A132.62,132.62,0,0,0-40.07,99.36c1.06.75,1.43,1.3,1.4,2.1a1.88,1.88,0,0,1-1.13,1.75A2.09,2.09,0,0,1-40.71,103.43Z" transform="translate(124.21 -8.33)"/><path class="cls-1" d="M-112.18,85.5a2.13,2.13,0,0,1-2-1.76c-.09-.38-.16-.76-.24-1.14l-.11-.55a76,76,0,0,1-1.61-15,45,45,0,0,1,2.16-14.42,14.64,14.64,0,0,1,.78-1.92,2,2,0,0,1,1.77-1.09,2.19,2.19,0,0,1,.86.19,2,2,0,0,1,1,2.58A34.44,34.44,0,0,0-112,64.28a68.43,68.43,0,0,0,1.78,18.6,2.2,2.2,0,0,1-.24,1.71,2.06,2.06,0,0,1-1.34.87A2.58,2.58,0,0,1-112.18,85.5Z" transform="translate(124.21 -8.33)"/><path class="cls-1" d="M-78.94,115.36a2.49,2.49,0,0,1-.7-.11,2,2,0,0,1-1.22-2.53,17.59,17.59,0,0,1,4.1-7.69,8.56,8.56,0,0,1,6-2.63,9.21,9.21,0,0,1,5.26,1.82,29.11,29.11,0,0,1,6.42,5.9,2,2,0,0,1-.26,2.82,2,2,0,0,1-1.26.46,2,2,0,0,1-1.54-.72,29.29,29.29,0,0,0-5.39-5c-.36-.25-.75-.46-1.09-.66l-.08,0a4,4,0,0,0-2-.57,4.38,4.38,0,0,0-2.73,1.06,11.38,11.38,0,0,0-3.13,5.11c-.09.25-.18.51-.26.78s-.12.41-.18.58A2,2,0,0,1-78.94,115.36Z" transform="translate(124.21 -8.33)"/><path class="cls-1" d="M-91.26,111.77a2,2,0,0,1-1.22-.43,1.83,1.83,0,0,1-.67-2.17A4.18,4.18,0,0,1-92,107.8a25.29,25.29,0,0,0,5.64-5.92c2.4-3.75,2.93-7.41,1.6-11.18a11.48,11.48,0,0,0-.47-1.09l-.09-.18a2,2,0,0,1,.81-2.71,2.05,2.05,0,0,1,1-.25,1.94,1.94,0,0,1,1.71,1,14.23,14.23,0,0,1,1.77,7A17.18,17.18,0,0,1-82.89,104a27.79,27.79,0,0,1-7.18,7.39A2,2,0,0,1-91.26,111.77Z" transform="translate(124.21 -8.33)"/><path class="cls-2" d="M-120.18,19.42c0-4.45,2.29-6.87,6.62-7V8.33h-.71a10,10,0,0,0-9.92,9.75c0,.61,0,1.14,0,1.62h4Z" transform="translate(124.21 -8.33)"/><path class="cls-2" d="M-120.18,106.36v-.12h-4c0,.48,0,1,0,1.6a10,10,0,0,0,9.91,9.77h.72v-4.06C-118,113.33-120.18,111-120.18,106.36Z" transform="translate(124.21 -8.33)"/><path class="cls-2" d="M-29.47,19.42c0-4.45-2.29-6.87-6.62-7V8.33h.71a10,10,0,0,1,9.91,9.75c0,.61,0,1.14,0,1.62h-4Z" transform="translate(124.21 -8.33)"/><path class="cls-2" d="M-29.47,106.36v-.12h4c0,.48,0,1,0,1.6a10,10,0,0,1-9.91,9.77h-.71v-4.06C-31.64,113.33-29.47,111-29.47,106.36Z" transform="translate(124.21 -8.33)"/><rect class="cls-2" y="22.54" width="98.77" height="5.2" rx="1.93"/></svg>