<svg id="Layer_1" data-name="Layer 1" xmlns="http://www.w3.org/2000/svg" viewBox="0 0 94.62 115.63"><defs><style>.cls-1{fill:#fff;}</style></defs><path class="cls-1" d="M-77.92,65.81l0-.54c0-.27,0-.58,0-.92,0-1.94-.11-4.35-3.45-4.6a30.16,30.16,0,0,1-17.07-7,32.6,32.6,0,0,1-12.57-25.4c0-1.23,0-2.16,0-3a3.5,3.5,0,0,1,3.72-3.65c.74,0,1.48-.06,2.21-.06A31.61,31.61,0,0,1-80.87,31.1l.3.34a6.86,6.86,0,0,0,1.49,1.38,1.14,1.14,0,0,0,.57.16,1,1,0,0,0,.43-.09,1.07,1.07,0,0,0,.63-.78c2-9.93,7-17.27,15.3-22.43,4.73-3,8.89-4.34,13.09-4.34h.61a2.07,2.07,0,0,0,.8-.14l.11,0h6.12l.07,0c2.38.59,2.66,1.28,2.78,3.75a32.65,32.65,0,0,1-9.59,25.33A32.65,32.65,0,0,1-68.65,44c-2.66.28-3.1.75-3.11,3.35,0,3,0,14.05,0,17.91v.6Zm-25.73-39.63a1.81,1.81,0,0,0-1.44.6,2.88,2.88,0,0,0-.38,2.38c0,.17,0,.3,0,.43,1.07,12,10.93,22.51,22.93,24.39a19.19,19.19,0,0,0,2.71.32A2.27,2.27,0,0,0-78,53.63c.69-.79.57-1.83.22-4.3-1.74-12.16-12.67-22.27-24.89-23h-.11A3.55,3.55,0,0,0-103.65,26.18Zm57.28-15.89-.37,0a28,28,0,0,0-25.5,25.44,2.8,2.8,0,0,0,.51,2.15,1.94,1.94,0,0,0,1.46.58,3.76,3.76,0,0,0,.7-.08l1-.15L-66.7,38c11.91-2,22-13.2,22.51-25a2.71,2.71,0,0,0-.53-2.07A2.2,2.2,0,0,0-46.37,10.29Z" transform="translate(122.14 -5.16)"/><path class="cls-1" d="M-75.95,120.78v-4.27h40.08a4.08,4.08,0,0,0,4.08-4.08V71.48a4.08,4.08,0,0,0-4.08-4.08H-75.95V63.12h40.08a8.37,8.37,0,0,1,8.36,8.36v41a8.37,8.37,0,0,1-8.36,8.35Z" transform="translate(122.14 -5.16)"/><path class="cls-1" d="M-69.74,110.42v-4.28h18.29a12.35,12.35,0,0,1,7.79-7.7V85.56a12.5,12.5,0,0,1-7.82-7.8H-69.74V73.48H-48l.31,1.77a8.09,8.09,0,0,0,6.57,6.54l1.77.31v19.8l-1.77.31a8.1,8.1,0,0,0-6.56,6.46l-.32,1.75Z" transform="translate(122.14 -5.16)"/><path class="cls-1" d="M-101.62,110.42l-.33-1.75a8.09,8.09,0,0,0-6.55-6.46l-1.77-.31V82.1l1.77-.31a8.08,8.08,0,0,0,6.56-6.54l.32-1.77h34.13v4.28H-98.17a12.52,12.52,0,0,1-7.83,7.8V98.44a12.55,12.55,0,0,1,7.8,7.7H-66v4.28Z" transform="translate(122.14 -5.16)"/><path class="cls-1" d="M-113.78,120.78a8.37,8.37,0,0,1-8.36-8.35V71.48a8.37,8.37,0,0,1,8.36-8.36H-73.7V67.4h-40.08a4.08,4.08,0,0,0-4.08,4.08v41a4.08,4.08,0,0,0,4.08,4.08H-73.7v4.27Z" transform="translate(122.14 -5.16)"/></svg>