<svg id="Layer_1" data-name="Layer 1" xmlns="http://www.w3.org/2000/svg" viewBox="0 0 78.88 115.7"><defs><style>.cls-1{fill:#fff;}</style></defs><path class="cls-1" d="M-103.81,120.82a10.46,10.46,0,0,1-10.45-10.45V15.57A10.46,10.46,0,0,1-103.81,5.12h58A10.46,10.46,0,0,1-35.39,15.57v94.8a10.46,10.46,0,0,1-10.45,10.45Zm0-110a4.8,4.8,0,0,0-4.8,4.8v94.8a4.8,4.8,0,0,0,4.8,4.8h58a4.8,4.8,0,0,0,4.8-4.8V15.57a4.8,4.8,0,0,0-4.8-4.8Z" transform="translate(114.26 -5.12)"/><path class="cls-1" d="M-78.82,17.7a1.81,1.81,0,0,1-1.82-1.82,1.82,1.82,0,0,1,1.82-1.82h8A1.82,1.82,0,0,1-69,15.88a1.81,1.81,0,0,1-1.82,1.82Z" transform="translate(114.26 -5.12)"/><path class="cls-1" d="M-86,17.47a1.59,1.59,0,0,1-1.59-1.59A1.59,1.59,0,0,1-86,14.3a1.59,1.59,0,0,1,1.59,1.58A1.59,1.59,0,0,1-86,17.47Z" transform="translate(114.26 -5.12)"/><path class="cls-1" d="M-102,105.82a1.29,1.29,0,0,1-1.29-1.29V24A1.29,1.29,0,0,1-102,22.67h54.39A1.29,1.29,0,0,1-46.34,24v80.57a1.29,1.29,0,0,1-1.29,1.29Zm2.29-80.57a1,1,0,0,0-1,1v76a1,1,0,0,0,1,1h49.81a1,1,0,0,0,1-1v-76a1,1,0,0,0-1-1Z" transform="translate(114.26 -5.12)"/><path class="cls-1" d="M-80.3,51.78v1.81h-2.77v7.93H-85.2V53.59h-2.74V51.78Z" transform="translate(114.26 -5.12)"/><path class="cls-1" d="M-80.66,61.52l3.75-9.74h2.1L-71,61.52h-2.26l-.69-1.82v0h-3.83v0l-.67,1.82ZM-77.19,58h2.64l-1.3-3.9Z" transform="translate(114.26 -5.12)"/><path class="cls-1" d="M-69,53.09a5.27,5.27,0,0,1,3.88-1.46,5.13,5.13,0,0,1,1.87.31,7,7,0,0,1,1.62.91l-.89,1.65a4.23,4.23,0,0,0-2.59-1,3.09,3.09,0,0,0-2.31.88,3.07,3.07,0,0,0-.86,2.22,3.07,3.07,0,0,0,.86,2.22,3.1,3.1,0,0,0,2.31.89,4.23,4.23,0,0,0,2.59-.95l.89,1.64a6.71,6.71,0,0,1-1.62.92,5.35,5.35,0,0,1-1.87.31A5.27,5.27,0,0,1-69,60.22a4.86,4.86,0,0,1-1.47-3.57A4.82,4.82,0,0,1-69,53.09Z" transform="translate(114.26 -5.12)"/><path class="cls-1" d="M-93.54,72.52l1.14-1.41-1.75-.5.43-1.29L-92,70l-.12-1.83h1.4L-90.88,70l1.71-.65.41,1.29-1.74.48,1.15,1.44-1.08.77-1-1.5-1.06,1.53Z" transform="translate(114.26 -5.12)"/><path class="cls-1" d="M-86.88,72.52l1.14-1.41-1.76-.5.43-1.29,1.69.67-.11-1.83h1.39L-84.23,70l1.71-.65.41,1.29-1.74.48,1.15,1.44-1.08.77-1-1.5-1.06,1.53Z" transform="translate(114.26 -5.12)"/><path class="cls-1" d="M-80.23,72.52l1.14-1.41-1.75-.5.43-1.29,1.68.67-.11-1.83h1.39L-77.57,70l1.71-.65.4,1.29-1.74.48L-76,72.53l-1.09.77-1-1.5-1,1.53Z" transform="translate(114.26 -5.12)"/><path class="cls-1" d="M-73.58,72.52l1.14-1.41-1.75-.5.43-1.29,1.68.67-.11-1.83h1.39L-70.92,70l1.71-.65.4,1.29-1.74.48,1.16,1.44-1.09.77-1-1.5-1.06,1.53Z" transform="translate(114.26 -5.12)"/><path class="cls-1" d="M-66.93,72.52l1.14-1.41-1.75-.5.43-1.29,1.69.67-.12-1.83h1.4L-64.27,70l1.71-.65.41,1.29-1.74.48,1.15,1.44-1.08.77-1-1.5-1.06,1.53Z" transform="translate(114.26 -5.12)"/><path class="cls-1" d="M-60.28,72.52l1.15-1.41-1.76-.5.43-1.29,1.69.67-.11-1.83h1.39L-57.62,70l1.71-.65.41,1.29-1.74.48,1.15,1.44-1.08.77-1-1.5-1.06,1.53Z" transform="translate(114.26 -5.12)"/></svg>