<svg id="Layer_1" data-name="Layer 1" xmlns="http://www.w3.org/2000/svg" xmlns:xlink="http://www.w3.org/1999/xlink" viewBox="0 0 300 300"><defs><style>.cls-1{fill:#e20613;}.cls-2{fill:url(#radial-gradient);}</style><radialGradient id="radial-gradient" cx="139.3" cy="120.12" r="61.55" gradientTransform="translate(0.88 21.69) scale(1.07)" gradientUnits="userSpaceOnUse"><stop offset="0" stop-color="#fff"/><stop offset="1" stop-color="#f1f2f2"/></radialGradient></defs><circle class="cls-1" cx="150.14" cy="150.39" r="150" transform="translate(-62.37 150.21) rotate(-45)"/><path class="cls-2" d="M133,202.75a25.93,25.93,0,0,1,34.11.12,20.82,20.82,0,0,1,7,15.85,20,20,0,0,1-7,15.59A24.79,24.79,0,0,1,150,240.53a24.32,24.32,0,0,1-17-6.22,20.17,20.17,0,0,1-6.84-15.59A20.84,20.84,0,0,1,133,202.75ZM164,178.41H136.32L127.19,67.6V60.25h45.89V67.6Z"/></svg>