<svg id="Layer_1" data-name="Layer 1" xmlns="http://www.w3.org/2000/svg" viewBox="0 0 130.74 90.74"><defs><style>.cls-1{fill:#fff;}</style></defs><path class="cls-1" d="M-42.92,103.68l-.11,0-.37,0h0l-.26,0-.44,0h-.15l-.62,0h-76.61l-.62,0h-.15l-.43,0-.27,0h0l-.37,0-.14,0A14.53,14.53,0,0,1-135.66,92a3.35,3.35,0,0,1,.5-2.85,3.32,3.32,0,0,1,2.75-1h3.2c8.63,0,64.65,0,64.65,0A36.2,36.2,0,0,1-68.1,84h-50.51a6.18,6.18,0,0,1-6.21-6.26q0-17.72,0-35.43V28.41a6.21,6.21,0,0,1,6.36-6.3H-48a6.19,6.19,0,0,1,6.3,5.49c.68,0,1.36-.06,2-.06s1.65,0,2.46.09A10.41,10.41,0,0,0-44,18.34a12.08,12.08,0,0,0-4.48-.74h-69.42a12.06,12.06,0,0,0-4.47.74,10.54,10.54,0,0,0-6.93,10.39V81.52a2.08,2.08,0,0,1-2.08,2.08h-3c-3.36.06-5.16,1.48-5.82,4.6v3.44c.11.61.17,1.2.22,1.76a10.24,10.24,0,0,0,.35,2.08A19.11,19.11,0,0,0-125.13,108l.25,0,.34.06,1.13.16c.66.06,1.34.07,2,.07H-45c.64,0,1.33,0,2-.07l1.14-.16.36-.06.21,0A19.11,19.11,0,0,0-27,96.1a35.42,35.42,0,0,1-6.27,1.74A14.45,14.45,0,0,1-42.92,103.68Z" transform="translate(140.19 -17.6)"/><path class="cls-1" d="M-84.16,56.5h0a8,8,0,0,1-8-8,7.9,7.9,0,0,1,2.34-5.64,7.93,7.93,0,0,1,5.64-2.35,8,8,0,0,1,8,8,7.94,7.94,0,0,1-2.34,5.65A7.92,7.92,0,0,1-84.16,56.5Z" transform="translate(140.19 -17.6)"/><path class="cls-1" d="M-84.29,68.34h0a14.75,14.75,0,0,1-9.33-3.45l-.38-.33.09-.49a14.3,14.3,0,0,1,4-7.75,1.27,1.27,0,0,1,.83-.31,1.28,1.28,0,0,1,.8.28,6.26,6.26,0,0,0,4,1.48,8.43,8.43,0,0,0,4.51-1.49A1.23,1.23,0,0,1-79,56a1.28,1.28,0,0,1,.85.33,13.33,13.33,0,0,1,3.77,7.7l.08.48-.37.31A14.65,14.65,0,0,1-84,68.34Z" transform="translate(140.19 -17.6)"/><path class="cls-1" d="M-39,93.12a33.1,33.1,0,0,1-7.69-.9,30.18,30.18,0,0,1-14.4-8.38,25.9,25.9,0,0,1-5.3-7.41,28.28,28.28,0,0,1-3.32-12.56A29.17,29.17,0,0,1-62.4,43.52a29.07,29.07,0,0,1,9.91-7.67,29.15,29.15,0,0,1,12.84-3A27.84,27.84,0,0,1-35,33.2a30.25,30.25,0,0,1,14.35,6.59,41.75,41.75,0,0,1,5.3,5.49,32.94,32.94,0,0,1,5.3,11.79A28.57,28.57,0,0,1-11.34,73.2,43.38,43.38,0,0,1-15,80.12,31.06,31.06,0,0,1-36.85,93,20.83,20.83,0,0,1-39,93.12Zm12.88-12.79a1.06,1.06,0,0,0-.48.11A7,7,0,0,0-27.88,82c-.8,1.21-1.56,2.26-3.28,4.47-1.06,1.37-1.06,1.45-1.06,1.66a.7.7,0,0,0,.79.65c1.24-.05,7.35-3.38,8.71-4.59l1-.92-.67-.74a13.7,13.7,0,0,0-2.93-2A2.13,2.13,0,0,0-26.16,80.33Zm-26.76-.1c-.3,0-4.38,2-4.38,3,0,.2,0,.67,3,2.57a33.27,33.27,0,0,0,4.89,2.49,4.49,4.49,0,0,0,1.39.41.69.69,0,0,0,.65-.38c.26-.52-.07-.94-1.64-3-.61-.78-1.64-2.21-2.24-3.13-1.3-2-1.38-2-1.71-2Zm9.71-2.29a31.34,31.34,0,0,0-5.17.74.83.83,0,0,0-.46,1.09c.31,1,3.17,4.71,4.72,6.26a18.43,18.43,0,0,0,1.53,1.37l1.37.95,0-5.13c0-.42,0-4.11-.13-4.52-.2-.71-.65-.76-1.38-.76Zm5.28,4.87c0,5,0,5,.71,5s4.76-4.84,4.8-4.88c.23-.28,2.2-2.76,2.2-3.39,0-.33,0-1.22-5.83-1.62l-1.88-.14Zm15-15.92a35.21,35.21,0,0,1-1.39,7.28,16.44,16.44,0,0,0-.52,2.18c0,.64.49,1,2.32,2.18,1.14.74,2.3,1.49,2.59,1.66l1,.57.94-1.31a27.63,27.63,0,0,0,4.52-9.6,32.92,32.92,0,0,0,.84-4.4c0-.72-.77-.76-1.23-.79s-1.63,0-3.86,0h-5.06Zm-38.9-2.26c-4.81,0-4.81.06-4.81.72,0,.43.67,3.58,1,4.67a27.11,27.11,0,0,0,4.52,9.44c.81,1.09,1,1.09,1.21,1.09s.31,0,1.56-.92c.6-.42,1.66-1.13,2.33-1.54a6.72,6.72,0,0,0,1.57-1.18c.24-.38.15-.89-.23-2.14a47,47,0,0,1-1.69-8.15c-.15-1.08-.21-1.57-.89-1.82C-57.41,64.76-57.74,64.63-61.83,64.63Zm14.66,0c-5.6,0-5.67.11-5.94.38s-.3.91-.1,2.19a54.23,54.23,0,0,0,1.69,7.06c.32.88.55,1.52,1.38,1.52A5.14,5.14,0,0,0-49,75.58c.56-.16,4.33-.74,6.36-1l1.39-.15V64.61Zm9.24,9.8,2.35.3c1,.13,2.76.39,3.92.57s2.21.38,2.34.42a1.09,1.09,0,0,0,.26,0c.86,0,1.21-1,1.7-2.6a57.22,57.22,0,0,0,1.49-7.1c.05-.68,0-1.14-.84-1.32-.47-.1-5.54-.12-5.59-.12h-5.63Zm18.58-28.89a2.32,2.32,0,0,0-1.32.64c-.4.3-1.44,1-2.28,1.51-1.75,1.09-1.84,1.31-1.89,1.46s-.14.37.38,2.08A44,44,0,0,1-23,58.09a10.65,10.65,0,0,0,.59,2.71c.34.47.69.47,4.92.51l4.95,0-.18-1.4a28.88,28.88,0,0,0-4.14-11.7C-18.12,46.24-18.55,45.57-19.35,45.57ZM-50.2,50.22a1,1,0,0,0-.7.21c-.9.74-2.37,7.89-2.45,9.51a1.23,1.23,0,0,0,.23,1c.28.27.35.35,5.95.39l6,0v-5c0-5,0-5-.7-5-.37,0-5.32-.73-6.74-1A10,10,0,0,0-50.2,50.22Zm-9.73-4.64a1.29,1.29,0,0,0-1,.48,33.5,33.5,0,0,0-3.06,5,32.24,32.24,0,0,0-2.61,9l-.18,1.25,4.75,0c5,0,5.09,0,5.32-.69.07-.19.31-1.78.44-2.72a44.88,44.88,0,0,1,1.48-6.77c.37-1.29.51-1.82.14-2.26a15.87,15.87,0,0,0-1.72-1.17c-.75-.45-1.73-1.11-2.15-1.42A2.54,2.54,0,0,0-59.93,45.58Zm22.61,5.82c-.61,0-.61,0-.61,5v5l5.49,0c2.41,0,5.17,0,5.56-.11l1.09-.17-.08-1.16a49.36,49.36,0,0,0-1.69-7.74l-.1-.31c-.29-.92-.5-1.59-1.53-1.59a9.57,9.57,0,0,0-1.43.18l-.44.08c-1.69.28-5.91.88-6.25.9Zm-4.83-13c-.43,0-.77.3-1.93,1.5-.63.65-5,5.53-4.83,6.61.14.69.89,1,3.65,1.33,1.13.15,2.36.3,2.74.33l1.32.13,0-4.88c0-4.29-.12-4.53-.4-4.81A.67.67,0,0,0-42.15,38.38Zm5.14.1a.84.84,0,0,0-.71.39c-.08.13-.21.33-.21,4.58v4.67l1.47,0a25,25,0,0,0,3.89-.49c1.33-.22,1.8-.31,2.06-.7a1,1,0,0,0,.09-.8c-.27-1.06-2.7-4.18-4.73-6.3C-36.08,38.81-36.56,38.48-37,38.48Zm5.71-1.21a.7.7,0,0,0-.64.37c-.25.51.07.92,1.59,2.86.62.8,1.51,2,2,2.75A20,20,0,0,0-27.07,45,1.72,1.72,0,0,0-26,45.6c.62,0,4-2,4-2.87,0-1.26-7-4.77-8.48-5.27A2.61,2.61,0,0,0-31.3,37.27Zm-16.55,0A16.26,16.26,0,0,0-52.26,39a31.09,31.09,0,0,0-4.6,3l-.74.79.9.79A16.28,16.28,0,0,0-55,44.78a5.58,5.58,0,0,0,1.82.82c.67,0,.8-.19,2.39-2.49.49-.72,1.51-2.1,2.23-3,1.58-2,1.5-2.15,1.3-2.48A.71.71,0,0,0-47.85,37.29Z" transform="translate(140.19 -17.6)"/><path class="cls-1" d="M-84.14,70.75a16.33,16.33,0,0,1-16.32-16.31A16.34,16.34,0,0,1-84.14,38.12,16.34,16.34,0,0,1-70,46.22c.49-.9,1-1.78,1.6-2.62a19.05,19.05,0,0,0-15.69-8.24,19.1,19.1,0,0,0-19.08,19.08A19.1,19.1,0,0,0-84.14,73.52a18.92,18.92,0,0,0,10.55-3.2c-.21-1-.39-2-.51-3A16.23,16.23,0,0,1-84.14,70.75Z" transform="translate(140.19 -17.6)"/></svg>