<svg id="Layer_1" data-name="Layer 1" xmlns="http://www.w3.org/2000/svg" xmlns:xlink="http://www.w3.org/1999/xlink" viewBox="0 0 450 450"><defs><style>.cls-1{fill:#e20613;}.cls-2{fill:url(#radial-gradient);}</style><radialGradient id="radial-gradient" cx="225.01" cy="225.06" r="130.04" gradientUnits="userSpaceOnUse"><stop offset="0" stop-color="#fff"/><stop offset="1" stop-color="#f1f2f2"/></radialGradient></defs><circle class="cls-1" cx="225.01" cy="225.06" r="225" transform="translate(-93.24 225.02) rotate(-45)"/><path class="cls-2" d="M271.65,225.06l66.55-79.31a35.73,35.73,0,0,0-4.4-50.34h0a35.73,35.73,0,0,0-50.34,4.41L225,169.48,166.56,99.82a35.73,35.73,0,0,0-50.34-4.41h0a35.73,35.73,0,0,0-4.4,50.34l66.54,79.31-66.54,79.32a35.71,35.71,0,0,0,4.4,50.33h0a35.72,35.72,0,0,0,50.34-4.4L225,280.65l58.45,69.66a35.72,35.72,0,0,0,50.34,4.4h0a35.72,35.72,0,0,0,4.4-50.33Z"/></svg>