<svg id="Layer_1" data-name="Layer 1" xmlns="http://www.w3.org/2000/svg" viewBox="0 0 84.87 83.13"><defs><style>.cls-1{fill:#312783;}</style></defs><path class="cls-1" d="M20.47,91.56A12.58,12.58,0,0,1,7.58,78.74q0-28.75,0-57.51a12.65,12.65,0,0,1,11-12.67.84.84,0,0,0,.33-.13h39.2a1.69,1.69,0,0,0,.31.13,3.45,3.45,0,0,1-1,6.75H20.43a5.74,5.74,0,0,0-6,6q0,3.43,0,6.88s0,38.13,0,50.47a5.79,5.79,0,0,0,4.86,5.95,6.46,6.46,0,0,0,1.15.07H57.28a3.29,3.29,0,0,1,3.16,1.86,3.23,3.23,0,0,1-.26,3.59,3.39,3.39,0,0,1-3,1.44Z" transform="translate(-7.56 -8.43)"/><path class="cls-1" d="M70.3,72.19a3.69,3.69,0,0,1-1-.15,3.2,3.2,0,0,1-2.4-2.5A3.42,3.42,0,0,1,68,66.13q3.47-3.45,6.91-6.91L79.07,55a4.36,4.36,0,0,1,.4-.35l.23-.19a.5.5,0,0,0,.1-.64l-.11-.18a.51.51,0,0,0-.43-.24H38.42a3.53,3.53,0,0,1-3.08-1.73,3.47,3.47,0,0,1,3.16-5.16h41a.49.49,0,0,0,.46-.3.5.5,0,0,0-.1-.55l-3.37-3.36c-2.89-2.88-5.72-5.7-8.54-8.53a3.46,3.46,0,0,1,2.27-6,3.51,3.51,0,0,1,2.47,1c1.88,1.86,3.74,3.72,5.61,5.59,0,0,10.18,10.18,12.86,12.88,1.74,1.74,1.74,3.66,0,5.41L72.77,71.07A3.48,3.48,0,0,1,70.3,72.19Z" transform="translate(-7.56 -8.43)"/></svg>