<svg id="Layer_1" data-name="Layer 1" xmlns="http://www.w3.org/2000/svg" viewBox="0 0 126.86 127.17"><defs><style>.cls-1{fill:#fff;}</style></defs><path class="cls-1" d="M-70.84-.58c-1.68-.05-3.36,0-5,0Z" transform="translate(138.26 0.61)"/><path class="cls-1" d="M-70.06,126.35a62.29,62.29,0,0,0,39.49-17.81,3.77,3.77,0,0,1,2.5-1.09c2.17-.17,4.34-.45,6.51-.72a2.81,2.81,0,0,0,2.59-2c.42-1.25-.22-2-1-2.87l-.09-.09c-.82-.92-2.35-1.59-2.42-2.67s1.14-2,1.76-3c6.54-10.83,9.92-22.62,9.17-35.24-1.51-25.7-14-44.37-37.13-55.74A54.57,54.57,0,0,0-68.69-.23c-18.26-1.37-34.47,3.65-48.22,16a4.32,4.32,0,0,1-2.67,1c-2.21.21-4.44.36-6.63.75a2.49,2.49,0,0,0-2.21,1.7,2.61,2.61,0,0,0,.68,2.83c0,.06.12.11.17.18.73.83,2.18,1.43,2.16,2.37s-1.17,1.81-1.8,2.72A61.89,61.89,0,0,0-138,56.4a1.33,1.33,0,0,1-.21,1.26v9.92A1.81,1.81,0,0,1-138,69.1a63,63,0,0,0,12.29,31.74,61.92,61.92,0,0,0,39.08,24.64,51,51,0,0,0,6.87.88,3.38,3.38,0,0,1,2,.19h5.2A4.74,4.74,0,0,1-70.06,126.35Zm-33.6-113.74a57.8,57.8,0,0,1,83.29,30.5c6.81,19,4.23,37.05-7.12,53.8-.14.21-.29.4-.43.61-1.25,1.8-1.18,2.77.42,4.43a7.13,7.13,0,0,1-2.51.4c-2.05.25-4.1.45-6.15.66-.37,0-.86.23-.78-.52.35-3,.66-6,1-9,2.16.65,2.94.36,4.15-1.45,18.55-27.81,6.63-65.72-24.49-77.33-16.82-6.27-32.87-4.22-47.88,5.65l-1,.61c.11-4.72-.17-5.3-2.78-5.55A25.12,25.12,0,0,1-103.66,12.61Zm-3.59,24.64a36.24,36.24,0,0,0,.93-6.72,4,4,0,0,1,1.54-3c9.9-8.11,21.21-11.91,34-10.75,20.68,1.88,36.74,15.87,41.44,36.17,2.71,11.69.85,22.85-5,33.32-.34.6-.59.84-1.09.18a2.89,2.89,0,0,0-.35-.35,2.75,2.75,0,0,0-3-.88,2.7,2.7,0,0,0-1.76,2.59c-.26,2.26-.54,4.51-.72,6.77a2.89,2.89,0,0,1-.95,2c-13,12.2-28.19,16.51-45.29,11.74-17.29-4.82-28.35-16.47-32.76-33.9-3.3-13.05-.88-25.35,6.44-36.65.22-.34.48-.66.74-1,.68.62,1.27,1.26,1.94,1.78A2.39,2.39,0,0,0-107.25,37.25Zm-4.92,70.82a56,56,0,0,1-20.37-36.2c-2.44-16.89,1.85-32,12.47-45.36,1.28-1.61,1.31-2.5,0-4.4,3.17-.35,6.15-.7,9.14-1,.77-.07.36.61.33.91-.3,2.83-.64,5.65-1,8.48-2.52-.83-3-.68-4.66,1.48a50.23,50.23,0,0,0-10.36,35.23,51.89,51.89,0,0,0,36.41,45.43c16.79,5,32.43,2.17,46.64-8.19.3-.21.59-.43,1-.74.08,1.3-.44,2.54.28,3.66s2,1.32,3.44,1.36a53.36,53.36,0,0,1-9.39,6.15A57.83,57.83,0,0,1-112.17,108.07Z" transform="translate(138.26 0.61)"/><path class="cls-1" d="M-70.19,126.43a9.19,9.19,0,0,0-2.4.12h2.48C-70.17,126.5-70.2,126.46-70.19,126.43Z" transform="translate(138.26 0.61)"/><path class="cls-1" d="M-70.17,126.4s0,0,0,0h.11s0-.05,0-.08A.16.16,0,0,0-70.17,126.4Z" transform="translate(138.26 0.61)"/><path class="cls-1" d="M-79.69,126.43a0,0,0,0,1,0,0c0,.06,0,.08-.08.08h2A6.07,6.07,0,0,0-79.69,126.43Z" transform="translate(138.26 0.61)"/><path class="cls-1" d="M-79.7,126.43h0s0-.05-.11-.07a.08.08,0,0,0,0,.07Z" transform="translate(138.26 0.61)"/><path class="cls-1" d="M-138.26,67.58v1.48s.09-.08.13-.08C-138.17,68.51-138,68-138.26,67.58Z" transform="translate(138.26 0.61)"/><path class="cls-1" d="M-138.13,69v.13h.09Q-138.08,69-138.13,69Z" transform="translate(138.26 0.61)"/><path class="cls-1" d="M-138.14,56.5s-.07,0-.12-.08v1.24C-138,57.3-138.15,56.89-138.14,56.5Z" transform="translate(138.26 0.61)"/><path class="cls-1" d="M-138.14,56.5s.07,0,.09-.1a.12.12,0,0,0-.08,0S-138.14,56.46-138.14,56.5Z" transform="translate(138.26 0.61)"/><path class="cls-1" d="M-74.87,68.53h0A21.57,21.57,0,0,1-96.43,47a21.44,21.44,0,0,1,6.31-15.24,21.43,21.43,0,0,1,15.24-6.32A21.58,21.58,0,0,1-53.33,47a21.37,21.37,0,0,1-6.32,15.23A21.36,21.36,0,0,1-74.87,68.53Zm0-38.47a16.78,16.78,0,0,0-12,5,16.86,16.86,0,0,0-5,12A17,17,0,0,0-74.88,63.91h0a16.8,16.8,0,0,0,12-5,16.78,16.78,0,0,0,5-12A17,17,0,0,0-74.88,30.06Z" transform="translate(138.26 0.61)"/><path class="cls-1" d="M-75.22,100.51h0a39.64,39.64,0,0,1-25.19-9.33l-1-.87.25-1.32c2.55-13.54,10.48-20.64,10.82-20.94a3.45,3.45,0,0,1,2.25-.84A3.42,3.42,0,0,1-86,68a16.85,16.85,0,0,0,10.83,4,22.69,22.69,0,0,0,12.16-4,3.34,3.34,0,0,1,2.07-.7,3.44,3.44,0,0,1,2.32.9c6.59,6,9.17,14.64,10.18,20.79l.21,1.29-1,.84a39.69,39.69,0,0,1-25.33,9.45Zm-21.16-12A35.11,35.11,0,0,0-75.2,95.88h.66a35,35,0,0,0,21.33-7.51c-1-5-3.12-11.46-7.82-16.16A26.7,26.7,0,0,1-75.14,76.6,21.15,21.15,0,0,1-88,72.22,34.64,34.64,0,0,0-96.38,88.51Z" transform="translate(138.26 0.61)"/></svg>